<svg xmlns="http://www.w3.org/2000/svg" xmlns:xlink="http://www.w3.org/1999/xlink" viewBox="0 0 66 54" fill="#fff" fill-rule="evenodd" stroke="#000" stroke-linecap="round" stroke-linejoin="round"><use xlink:href="#A" x=".5" y=".5"/><symbol id="A" overflow="visible"><path d="M16.408 34.969l-1.688 1.93-4.34-3.617V15.678l2.4-2.4 3.617 3.376zm11.575 2.4l-5.064-4.34V15.436l2.17-2.17 2.894 2.894zm6.5-4.823v-18.8L28.937 8.2l-5.787 6.27-6.27-6.27-6.03 6.27v-1.93c0-5.305-3.135-4.34-3.135-7.958 0-2.17 1.447-3.135 3.135-4.1L10.368 0C5.304 1.93 2.41 4.34 2.41 7.475c0 2.653 1.93 2.894 1.93 5.546v7.716C.723 20.737 0 24.113 0 25.56c0 .723.24 1.688.24 1.93h.723c.24-.965.723-1.93 1.93-1.93H4.34v9.887l7.234 6.27 5.546-6.03 6.993 6.03zm16.737-18.6V9.123h-.965v5.787l-1.447 1.688v-5.064l-4.823-4.34-5.546 5.787.723.723 1.447-1.447 1.93 1.688v5.546h-.482c-2.894 0-4.34 1.93-4.34 4.34 0 1.447.24 1.93.482 2.4h.723c.24-1.206 1.206-2.17 2.653-2.17h.965v9.887c-3.376.965-5.305 4.1-5.546 7.958l.482.24c1.688-1.93 3.376-3.135 5.305-3.376l.24 13.745 5.787-5.546 2.894 2.653h.24V39.266c1.206.482 2.4 1.447 3.135 2.4L64 34.916V12.74l-5.546-5.305zm-1.206 33.277l-1.447-1.447V17.322l1.447-1.688zm6.752-11.575c-1.688-1.688-3.135-2.4-5.546-2.653V14.428l2.653-2.894 3.135 2.894v21.22z" stroke="none" fill="#000" fill-rule="nonzero"/></symbol></svg>